<svg height="1584" viewBox="0 0 1583.969 1584" width="1583.969" xmlns="http://www.w3.org/2000/svg">
    <path
        d="m787 0c21.89-.187 35.058 8.455 43 22 8.166 13.928 4 57.364 4 79v126c0 18.445 3.063 44.375-3 58-5.477 12.307-18.421 20.636-33 24-9.458 2.182-18.77-2.3-24-5-28.431-14.657-23-42.542-23-84v-135c0-19.2-3.345-46.72 3-61 3.7-8.335 13.48-17.424 22-21 3.618-1.519 7.978-1.009 11-3zm-532 220c35.715-.267 46.374 22.374 64 40l138 137c13.915 19.207 8.545 48.094-8 60-34.179 24.6-61.665-10.664-79-28l-105-106c-13.657-13.657-38.261-30.9-44-51-5.691-19.93 7.045-38.857 18-46 4.651-3.032 11.246-2.86 16-6zm1060 0c8.35-.12 16.88-.524 23 2 19.71 8.136 36.33 37.4 21 62q-85.995 86.491-172 173c-13.65 9.817-37.39 9.826-51 0-11.98-8.647-21.89-32.047-13-52 3.51-7.868 12.11-15.11 18-21l106-105q24.99-25.5 50-51c5.15-3.733 12.63-4.2 18-8zm-525 155c69.975.089 125.617 16.672 174 38 104.21 45.935 174.38 125.327 219 231 39 92.364 31.94 224.976-6 312-48.45 111.12-131.54 183.41-245 230-23.268 9.55-49.939 12.6-76 19q-18.5 1.995-37 4h-17c-16.321 0-34.387 1.1-48-2-18.212-4.15-34.339-2.29-51-7-29.795-8.43-57.461-17.75-83-29-76.627-33.76-135.3-87.24-178-155-8.7-13.8-19.167-28.5-26-44-10.1-22.921-16.641-45.312-25-71-11.328-34.812-22.381-108.947-12-154 2.344-10.173.507-18.395 3-28 7.334-28.258 12.377-55.933 23-81 50.1-118.229 131.425-190.926 251-240 26.512-10.881 56.642-12.967 87-20 9.143-2.118 41.5.436 47-3zm-8 84c-6.616 3.868-26.344.895-35 3-23.936 5.821-47.895 8.286-69 17-96.2 39.723-159.362 103.677-199 200-8.083 19.642-10.608 41.933-16 64-9.121 37.33-1.572 103.6 8 133 6.17 18.953 9.572 35.089 17 52 34.572 78.71 96.311 137.07 176 171 21.542 9.17 45.653 15.39 71 22 10.723 2.8 20.46.48 32 3 8 1.75 42.718 3.12 52 1 8.016-1.83 17.375-.87 26-3 22.349-5.52 44.988-8.74 65-17 87.184-35.97 152.76-96.25 190-182 10.93-25.166 15.7-52.54 23-82q1.005-15 2-30c2.75-12.676 1.91-47.627-1-60-7.21-30.63-12.17-58.75-23-84-50.14-116.9-152.45-207.734-319-208zm-745 291h177c25 0 60.017-3.957 76 6 10.057 6.265 24.093 23.628 19 44-9.627 38.507-42.1 34-89 34h-121c-25.653 0-62.516 4.273-79-6-18.062-11.256-26.221-41.061-11-62 3.507-4.824 11.253-10.592 17-13 3.623-1.518 7.968-1.02 11-3zm1275 0h177c25 0 60.02-3.957 76 6 10.06 6.265 24.09 23.628 19 44-9.63 38.507-42.1 34-89 34h-121c-25.65 0-62.52 4.273-79-6-18.06-11.256-26.22-41.061-11-62 3.51-4.824 11.25-10.592 17-13 3.62-1.518 7.97-1.02 11-3zm-895 369c28.78-.41 48.007 13.96 48 42 0 8.05-.871 14.7-4 20-4.889 8.27-13.355 14.36-20 21q-22 22.005-44 44-54.495 54.99-109 110c-14.726 10.65-39.093 9.33-53-1-5.419-4.02-8.152-10.2-11-17-11.36-27.11 6.044-43.05 20-57q52.494-51.99 105-104 24.5-24.99 49-50c5.353-3.86 13.436-4.07 19-8zm738 0c34.51-.24 45.86 22.86 63 40q69.495 69 139 138c12.35 17.17 8.1 46.82-7 58-35.07 25.98-61.62-7.62-80-26q-52.995-53.49-106-107c-14.01-14.01-38.39-30.93-44-52s8.78-38.64 19-45q7.995-3 16-6zm-368 156c21.89-.19 35.058 8.45 43 22 8.166 13.93 4 57.36 4 79v126c0 18.45 3.063 44.38-3 58-5.477 12.31-18.421 20.64-33 24-9.458 2.18-18.77-2.3-24-5-28.431-14.66-23-42.54-23-84v-135c0-19.2-3.345-46.72 3-61 3.7-8.33 13.48-17.42 22-21 3.618-1.52 7.978-1.01 11-3z"
        fill-rule="evenodd" transform="translate(-1.031)" />
</svg>