<svg height="1001" viewBox="0 0 917.25 1001" width="917.25" xmlns="http://www.w3.org/2000/svg">
    <path
        d="m498 0c36.712.021 63.9.032 77 25 2.83 5.394 7.663 15.678 5 26-4.937 19.137-18.588 32.721-28 48-15.993 25.962-27.725 57.134-38 88-35.812 107.58-10.333 249.11 36 325 49.825 81.61 115.263 142.249 207 182 29.531 12.8 62.535 17.717 97 26l28 2c14.894 3.646 27.5 12.083 33 25 3.952 9.273 3.986 24.729 0 34-3.072 7.143-9.677 13.009-14 19-13.847 19.189-28.565 35.574-45 52-63.383 63.352-127.995 100.764-224 132-22.658 7.372-47.8 8.338-72 14-12.182 2.85-25.441.369-37 3h-18c-18.708.01-38.159.64-54-3-20.124-4.624-38.41-2.717-57-8-22.9-6.507-46.638-11.18-68-20-11.466-4.734-24-11.145-35-16-104.781-46.234-198.909-139.4-245-244-12-27.243-19.664-54.113-29-85-9.973-33-15.988-71.857-16-114 0-17.55-1.357-37.2 2-52 2.744-12.1.183-22.549 3-34 8.644-35.134 13.288-69.228 26-100 58.993-142.8 154.894-236.184 298-295 33.024-13.573 69.75-17.041 108-26l39-3c5.957-.025 16.951 1.527 21-1zm-40 86c-7.523 4.392-25.453 2.5-35 5-23.016 6.035-46.938 10.293-68 19-39.753 16.433-75.632 36.234-108 60-13.853 10.171-25.364 23.464-39 34l-7 9c-15.418 15.553-28.129 31.676-41 50-26.808 38.167-45.755 80.252-62 130-5.2 15.915-6.025 33.459-10 50l-1 17c-4.134 18.639-4.455 72.1 0 91 4.809 20.4 5.719 41.781 12 61 30.572 93.54 78.664 168.567 150 221 40.187 29.538 85.309 51.638 138 69l51 11 16 1c33.747 7.543 102.446 3.371 132-5 49.891-14.131 92.429-28.916 131-53 12.431-7.762 24.383-14.481 36-23 6.672-4.893 12.438-12.059 19-17 7.5-5.644 20.718-13.679 24-23-17.371-.754-36.014-9.205-50-15-27.824-11.529-53.335-20.491-77-35-17.935-11-35.225-20.178-52-32-62.049-43.728-125.7-119.8-158-193-7.848-17.788-12.941-34.948-20-54-9.449-25.5-13.8-54.9-21-84-3.063-12.38-.14-23.965-3-37-2-9.092-4.472-42.144-2-53 2.114-9.284-.317-20.938 2-31 6.166-26.774 5.966-54.343 14-79 6.309-19.36 11.3-39.4 19-58 4.869-11.757 12.608-23.27 16-36z"
        fill-rule="evenodd" transform="translate(-.719)" />
</svg>