<svg height="1751" viewBox="0 0 1916 1751" width="1916" xmlns="http://www.w3.org/2000/svg">
    <path
        d="m1119 0c19.85-.167 33.52 6.972 41 19 10.44 16.8 6 54.87 6 81v126c0 16.964 3.53 42.669-2 56-5.84 14.08-17.73 23.247-34 27-9.46 2.182-18.77-2.3-24-5-28.69-14.789-24-42.98-24-85v-132c0-19.536-3.17-46.147 3-61 3.92-9.428 13.6-19.053 23-23 3.62-1.518 7.98-1.009 11-3zm-533 220c36.6-.278 47 22 65 40l138 137c13.266 18.435 7.871 48.58-8 60-34.62 24.911-62.547-11.546-80-29l-104-105c-13.849-13.849-37.96-30.691-44-51-5.934-19.951 6.968-39.134 18-46 4.484-2.791 10.655-2.961 15-6zm1061 0c9.87-.139 18.1.039 25 3 17.47 7.494 33.52 36.11 20 59-4.2 7.108-11.3 12.3-17 18q-17.505 17.5-35 35-54 54.5-108 109c-14.42 14.418-37.79 31.309-63 14-16.17-11.1-23.85-40.812-10-60q31.995-31.5 64-63 53.49-53.994 107-108c4.87-3.349 12.05-3.509 17-7zm-525 155c101.61 1.8 178.79 31.081 240 74 12.35 8.658 23.9 18.865 36 28q3.495 4 7 8c48.94 37.014 94.14 111.535 116 176 8.56 25.225 11.44 52.155 18 80q.495 10 1 20c5.29 24.483 2.36 67.786-3 90-2.12 8.774-.7 15.527-3 24-4.92 18.116-7.99 37.944-15 55-14.02 34.126-28.15 67.519-48 96-9.05 12.99-20.63 24.6-30 37-12.44 16.48-45.02 52.11-64 60-34.21 14.22-69.8-21.24-55-56 8.78-20.63 34.07-29.94 47-47 8.58-11.31 18.86-21.446 27-33 16.66-23.634 30.32-50.659 42-79 7.87-19.1 10.64-40.75 16-62 9.76-38.724 2.81-103.954-7-136-5.33-17.4-8.22-32.432-15-48-31.09-71.363-93.18-139.807-164-171-26.11-11.5-53.46-19.1-84-27-36.55-9.448-100.45-5.237-133 4-15.96 4.53-29.72 6.11-44 12-69.7 28.746-125.929 72.734-164 133-17.656 27.949-29.8 59.514-41 94-6.912 21.281-4.048 52.472-16 69-12.645 17.486-41.982 21.141-61 7-14.429-10.729-17.856-35.939-12-59 9.761-38.438 17.4-73.742 33-105 53.9-107.992 121.33-171.889 236-219 28.4-11.669 60.03-14.361 93-22 9.14-2.118 41.49.436 47-3zm-753 375h178c24.484 0 59.574-4.072 75 6 9.89 6.457 24.1 23.639 19 44-9.7 38.7-42.834 34-90 34h-120c-25.654 0-62.515 4.273-79-6-17.21-10.725-26.665-40.683-12-61 3.726-5.162 11.856-11.425 18-14 3.623-1.518 7.968-1.02 11-3zm1275 0h178c24.48 0 59.57-4.072 75 6 9.89 6.457 24.1 23.639 19 44-9.7 38.7-42.83 34-90 34h-120c-25.65 0-62.52 4.273-79-6-17.21-10.725-26.67-40.683-12-61 3.73-5.162 11.86-11.425 18-14 3.62-1.518 7.97-1.02 11-3zm-785 43c197.04-4.247 326.44 102.251 400 222 19.35 31.5 31.65 68.82 44 107 2.63 8.12 6.01 42.03 11 45 6.24 3.64 17.53 1.11 25 3 16.21 4.1 32.91 6.31 48 12 49.58 18.69 101.88 52.19 131 91 25.45 33.93 44 69.76 58 116 4.07 13.45 2.73 26.04 6 41 4.07 18.63 3.23 48.35-1 66-3.45 14.41-2.74 26.9-7 40-9.49 29.15-21.31 54.75-36 78-39.11 61.89-93.57 102.18-170 127-33 10.72-75.06 10-118 10h-932c-10.294 0-23.386.94-32-1h-17c-7.727-1.17-16.8-.94-25-3-21.8-5.49-43.767-9.68-63-18-71.519-30.94-126.925-84.68-158-156-8.6-19.73-13.2-41.55-19-64-11.244-43.5-1.386-107.71 11-141 6.031-16.21 9.552-32.09 18-46 42.738-70.36 100.446-127.91 193-148v-5c-3.788-5.8-3.124-27.23-3-37 .405-31.76 9.789-59.44 21-81 26.933-51.8 64.162-83.795 124-103 21.246-6.819 58.543-12.751 86-6 14.6 3.59 29.826 6.452 43 12 8.674 3.653 17.242 11.3 27 13 10.936-17.937 27.463-32.465 42-47 48.17-48.164 106.343-84.1 179-108 23.974-7.886 49.713-10.09 76-16 8.958-2.014 31.628 1.04 38-3zm-2 84c-5.809 3.409-16.8.358-24 2l-45 8c-43.442 13.054-82.776 28.722-116 52-29.806 20.883-59.8 47.539-81 77-13.117 18.23-23.164 45.76-47 53-30.655 9.31-45.809-18.99-62-29-38.084-23.55-94.424-19.06-128 5-25.9 18.56-38.94 45.03-47 82-9.916 45.48 33.238 70.97 8 106-3.219 4.47-6.348 9.1-11 12-14.164 8.83-40.058 5.03-58 10-25.812 7.16-48.834 16.21-69 29-40.778 25.86-69.771 67.54-86 118-17.562 54.61-1.407 125.72 21 162 5.476 8.87 12.957 16.87 19 25 6.389 8.6 13.529 18.61 22 25 28.642 21.61 56.709 37.93 97 49 23.476 6.45 54.544 4 83 4h923c29.34 0 59.37 1.57 83-5 52.15-14.49 94.53-41.88 122-81 13.4-19.08 24.16-41.67 32-66 9.81-30.44 9.09-78.99 0-109-19.91-65.75-58.61-113.3-118-139-18.84-8.15-39.38-11.05-62-16h-18c-6.43-1.26-18.95 2.21-28 0-10.87-2.66-21.3-9.11-27-17-9.41-13.04-5.56-33.03-10-52-7.21-30.79-12.62-59.71-24-86-38.03-87.83-105-154.109-193-192-23.035-9.919-48.727-15.4-75-22-24.259-6.1-52.21-4.783-81-5zm630 242c34.4-.22 45.89 22.89 63 40q69 68.49 138 137c11.76 16.23 10.68 46.26-5 58a58.845 58.845 0 0 1 -14 8c-31.3 11.48-50.33-16.33-64-30q-52.5-52.995-105-106c-12.12-12.12-39.69-33.7-46-49-8.2-19.88 2.59-42.51 15-51 5.17-3.54 12.59-3.43 18-7z"
        fill-rule="evenodd" />
</svg>