<svg height="1509" viewBox="0 0 1850 1509" width="1850" xmlns="http://www.w3.org/2000/svg">
    <path
        d="m1430 0c34.12.6 59.63-.519 74 21 3.69 5.531 10.52 16.066 8 27-4.98 21.563-18.78 35.342-29 52-14.85 24.209-26.51 53.436-36 82-7.85 23.625-10.02 49.021-16 75-4.37 18.974-4.22 72.352 0 91 4.44 19.622 2.93 37.157 8 55 11.91 41.945 25.44 81.455 46 115 54.89 89.562 132.28 153.055 241 189 16.98 5.614 35.32 7.715 53 12 27.9 6.763 40.76-1.486 59 17 5.49 5.563 14.23 17.7 12 30-6.06 33.463-32.84 50.322-50 73-11.12 14.69-25.28 27.908-40 39-9.93 7.483-18.72 17.743-29 25a598.609 598.609 0 0 1 -108 61c-20.2 8.736-40.69 13.236-63 20-6.79 2.059-17.12 7.339-27 5-12.09-2.863-23.98-9.065-30-18-11.78-17.473-6.42-46.476 8-57 17.59-12.833 47.94-14.342 69-23 32.33-13.294 63.9-29 91-48 7.58-5.316 14.64-12.521 22-18 11.64-8.665 27.03-18.861 35-31h-1v-1c-17.41-.762-40.74-11.069-55-17-9.08-3.774-17.11-5.111-26-9a473 473 0 0 1 -81-46c-79.57-55.9-140.98-125.6-182-220-11.84-27.248-17.28-54.857-26-86-10.98-39.224-19.06-122.371-8-169 3.21-13.512 1.51-25.156 5-38 12.1-44.544 24.48-84.373 42-122h-7l-34 5c-23.6 6.386-47.49 10.126-69 19-76.56 31.586-141.24 77.687-187 140-33.06 45.022-55.68 95.533-73 157-5.2 18.455-4.7 38.7-9 58v16c-2.52 11.224-1.76 22.017-7 30-15.048 22.944-53.386 25.137-70 2-11.453-15.95-6.1-42.375-5-66 2.275-48.844 19.149-98.9 35-136 58.07-135.934 153.36-224.557 291-281 32.97-13.519 69.94-17.119 108-26l39-3c6.18-.046 17.77 1.65 22-1zm-118 926c38.37-.854 72 13.16 99 25 80.84 35.457 132.38 96.93 161 185 8.71 26.79 18.51 83.81 10 120-4.65 19.8-6.75 40.32-14 58-34.76 84.7-89.49 142.19-174 177-17.88 7.37-37.96 10.1-58 15-9.4 2.3-19.95.96-29 3h-978c-29.916.01-61.882 2.49-87-4-59.266-15.31-93.952-31.48-136-63-7.735-5.8-14.176-14.17-21-21-38.467-38.48-61.882-83.29-79-144-9.3-32.99-7.622-88.39 1-120 4.471-16.39 5.985-30.4 12-45 25.575-62.08 64.2-108.12 118-142 21.254-13.382 58.46-34.555 89-37-.656-18.041-6.324-38.6-2-58 3.63-16.287 5.117-32.631 11-47 20.639-50.412 53.088-84.705 100-109 25.728-13.324 75.845-28.67 117-19 17.116 4.022 34.074 7.514 49 14 7.575 3.292 14.846 9.326 23 12v-1c5.116-4.844 8.719-11.3 13-17a215.511 215.511 0 0 1 40-40l8-9c23.336-17.626 46.466-35.381 72-51 31.4-19.21 68.935-30.747 107-43 66.42-21.38 178.879-16.086 239 6 19.73 7.25 37.7 11.951 56 20 92.74 40.795 164.17 114.775 210 203 17.9 34.446 39.3 84.863 43 132zm-446-291c-4.683 2.751-13.745-.387-20 1l-48 7c-42.2 11.82-80 25.215-113 46-34.284 21.59-68.323 50.726-92 83-13.5 18.4-24.181 47.257-48 55-29.945 9.735-49.069-20.156-65-30-39.491-24.4-95.374-15.393-128 8-25.517 18.3-37.054 45.522-45 82-9.391 43.109 34.337 72.206 8 105-2.907 3.619-5.214 7.358-9 10-12.236 8.54-30.434 4.71-48 9-27.571 6.74-52.837 13.86-74 27a213.55 213.55 0 0 0 -91 116c-28.059 85.99 12.959 183.05 62 220 25.988 19.58 52.979 35.99 89 46 25.253 7.02 58.526 5 90 5h924c31.3 0 62.54 1.32 87-6 49.75-14.89 90.32-42.96 117-81 12.88-18.36 23.5-40.73 31-64 9.85-30.57 9.14-79.92 0-110-20.49-67.45-59.91-113.66-121-140-19.08-8.23-39.96-10.02-63-15h-43c-7.65-1.87-12.74-6.06-18-10-1.77-1.321-3.72-1.312-5-3-12.51-16.453-7.47-33.363-13-57-7.1-30.321-12.76-59.031-24-85-52.66-121.661-166.72-217.569-340-219z"
        fill-rule="evenodd" />
</svg>