<svg height="1401.59" viewBox="0 0 1584.813 1401.59" width="1584.813"
    xmlns="http://www.w3.org/2000/svg">
    <path
        d="m1312 375c38.58-.861 80.07 14.479 106 28 64.22 33.486 113.46 79.2 143 147 5.83 13.39 8.22 26.162 13 41 6.63 20.6 15.51 69.46 9 98v10c-3.83 16.561-4.88 33.59-10 49-30.18 90.753-88.62 154.632-174 190-19.7 8.161-41.62 11.533-64 17-11.05 2.7-21.99-.649-34 2-19.73 4.351-47.28 1-69 1h-196c-191.97 0-386.555-1.013-580-1h-134c-23.172 0-49.688 2.815-70-2-44.42-10.529-80.975-20.184-114-41-55.662-35.084-94.537-85.495-121-150-5.276-12.859-6.2-25.651-10-40-8.729-32.992-9.47-88.562 0-122 6.839-24.148 13.022-50.073 25-70 32.557-54.161 66.1-90.182 120-123 22.267-13.558 48.971-17.535 75-28-1.694-4.777-.685-9.851-2-16-8.2-38.331 6.411-76.642 17-101 24.3-55.889 66.9-89.511 128-109 22.567-7.2 59.627-11.927 87-5 15.151 3.834 30.507 7.136 44 13 7.575 3.292 14.846 9.325 23 12v-1c6.513-4.58 11.193-13.6 16-20 5.836-7.764 15.2-13.333 21-21a155.852 155.852 0 0 1 28-28c21.037-15.88 42.089-31.967 65-46 31.537-19.317 68.892-31.6 107-44 23.121-7.521 48.8-7.24 74-13l45-1q59.221-.016 105 14c47.77 14.627 88.25 29.2 126 53 16.67 10.507 32.3 23.231 48 35 5.08 3.805 8.97 10.194 14 14a231.591 231.591 0 0 1 43 43c12.25 16.318 25.05 32.638 36 50 5.17 8.188 7.89 16.578 13 25 18.15 29.889 27.61 63.354 39 101 3.5 11.566 7.55 24.815 8 39zm-439-291c-5.82 3.42-17.427-.675-25 1-16.187 3.581-33.411 2.653-49 7-45.7 12.742-84.645 27.567-120 50-31.821 20.191-65.943 51.937-88 82-13.1 17.857-22.334 43.921-45 52-29.62 10.558-50.543-20.449-66-30-35.264-21.79-90.106-17.205-122 4-21.6 14.36-38.314 37.826-47 65q-2 13-4 26c-1.406 6.613.771 15.788 2 21 2.459 10.43 2.3 18.216 6 27 7.759 18.411 14.08 31.7 1 51-3.07 4.53-6.41 9.133-11 12-14.126 8.824-38.607 5.125-57 10-26.043 6.9-49.681 16.132-70 29-41.674 26.391-70.527 68.281-87 120-3.439 10.795-2.328 20.816-5 33-2.782 12.689-2.8 30.312 0 43 3.055 13.859 2.048 24.806 6 37 9.228 28.474 23.156 50.707 39 72 6.362 8.55 13.566 18.635 22 25 31.311 23.628 57.909 39.036 103 50 21.6 5.252 51.253 2 76 2h149c213.652 0 430.771.989 646 1h130c24.84 0 51.95 2.319 73-3 56.26-14.219 101-39.807 130-81 14.39-20.437 25.59-43.577 34-70 9.44-29.647 8.7-74.9 0-104-2.84-9.5-3.36-17.295-7-26-20.91-49.995-58.72-92.537-108-114-21.39-9.315-43.62-12.288-70-18-9.05-1.96-24.48-.4-32 1-13.66 2.542-32.2-11.006-37-18-9.23-13.444-5.39-35.179-10-54-7.17-29.265-12.17-56.836-23-82q-69.54-161.536-251-212c-24.823-6.88-53.726-7.535-83-9zm-531 932c27.592-.48 39.836 9.1 47 29 3.036 8.43 3.8 19.92 0 29-4.748 11.36-15.835 18.84-24 27q-20 19.995-40 40c-7.918 7.92-14.811 17.41-26 22-9.859 4.05-27.036 2.19-35-2-17.152-9.03-29.681-38.05-16-60q38-38.49 76-77c5.16-3.74 12.6-4.22 18-8zm289 0c8.142-.11 16.147-.43 22 2 18.008 7.49 36.208 33.54 23 59-4.35 8.38-13.516 14.52-20 21q-21.5 21.495-43 43-68.493 69-137 138c-17.422 17.42-45.428 53.96-80 29-11.958-8.63-21.852-32.09-13-52 5.36-12.05 24.489-27.49 34-37l198-197c4.636-3.03 11.283-2.84 16-6zm290 0c8.4-.15 16.973-.51 23 2 17.348 7.23 34.748 30.65 24 56-4.323 10.2-13.68 16.68-21 24q-20 19.995-40 40c-7.748 7.75-15.515 19.38-26 24-12.253 5.4-31.668 3.11-41-3-14.872-9.74-26.128-37.9-13-58q38-38.49 76-77c5.207-3.75 12.594-4.22 18-8zm293 0c9.87-.14 18.1.04 25 3 18.56 7.96 33.04 39.04 18 62q-82.995 83.49-166 167c-15.53 15.53-39.66 33.12-66 14-10.99-7.97-21.43-29.31-14-49 4.2-11.12 15.13-20.13 23-28q81.495-80.985 163-162c4.76-3.38 12.09-3.53 17-7zm-471 199c8.34-.13 16.893-.52 23 2 17.322 7.16 34.634 30.87 24 56-6.665 15.75-24.469 27.47-36 39q-29 28.995-58 58c-8.58 8.58-16.769 20.35-27 27-11.725 7.62-33.318 7.28-45 0-16.634-10.37-26.93-40.29-12-61q20.5-19.995 41-40 36-36.495 72-73c5.2-3.75 12.612-4.21 18-8z"
        fill-rule="evenodd" transform="translate(-.188 -1)" />
</svg>