<svg height="1966" viewBox="0 0 1729.44 1966" width="1729.44" xmlns="http://www.w3.org/2000/svg">
    <path
        d="m854 1c15.835.054 25.124 1.524 34 8 15.963 11.647 14.928 39.207 21 61 14.058 50.457 22.982 104.814 35 156 5.35 22.785-16.408 41-31 45-7.487 2.054-15.445.1-21-2-30.184-11.383-25.229-33.472-34-65-11.041-39.685-15.462-82.587-27-123-3.329-11.659-12.308-38.3-7-53 3.008-8.333 10.048-17.471 17-22 3.793-2.471 9.31-2.4 13-5zm523 84c9.87-.259 18.27-.027 25 3 12.71 5.719 29.17 26.684 21 49-3.02 8.243-9.46 15.175-14 22-9.28 13.964-18.27 28.233-27 42-24 37.855-47.06 75.111-71 113-8.49 13.441-27.9 32.508-53 22-16.17-6.77-34.37-33.027-21-56 20.66-35.488 46.08-69.358 68-104 12-18.962 24.28-37.452 36-56 5.28-8.35 9.25-20.216 17-26 5.51-4.113 13.11-4.915 19-9zm-933 204c24.814 1.133 40.684 18.245 57 29 34.486 22.731 69.458 45.121 104 67 11.3 7.157 22.251 13.813 33 21 3.535 2.364 8.446 3.754 11 7 13.152 16.713 14.119 39.336 0 56-18.187 21.466-47.5 8.573-65-3-40.934-27.078-83.087-53.872-124-81-15.757-10.448-39.109-18.885-49-35-12.843-20.925.24-47.249 15-56 5.006-2.968 12.837-1.832 18-5zm563 15c82.37-1.785 148.42 18.036 199 49 12.71 7.782 25.06 13.611 37 22 65.63 46.125 114.12 114.139 142 198 6.2 18.662 8.19 39.063 13 59 5.3 21.975 5.01 74.466 0 96-4.74 20.335-4.02 38.668-10 57-15.97 48.935-34.21 85.847-61 123a351.359 351.359 0 0 1 -38 44c-5.17 5.173-9.83 11.936-17 15-29.66 12.668-65.32-14.612-56-46 6.41-21.612 27.82-32.605 40-49a389.608 389.608 0 0 0 48-85c7.67-18.594 10.02-40.043 15-61 8.07-33.933.03-93.1-8-119-29.23-94.333-84.48-161.662-170-199-18.89-8.249-39.88-13.312-61-19-34.62-9.326-94.811-6.5-126 3-14.257 4.342-27.111 5.668-40 11-63.424 26.238-113.309 67.081-148 122-13.771 21.8-24.268 47.719-33 74-5.671 17.067-5.462 37.2-15 50-12.481 16.748-41.776 16.359-58 4-12.146-9.252-15.3-31.343-10-50 9.066-31.906 18.258-61.686 32-88 46.548-89.131 111.914-148.395 208-188 23.011-9.484 49-12.748 75-19zm679 213c41.83.287 58.67 50.2 27 73-15.37 11.066-47.13 11.217-68 17-48.81 13.528-101.54 22.418-151 34-22.01 5.154-39.74-10.649-45-23-9.54-22.413 4.27-46.278 20-53 8.79-3.756 18.14-3.24 28-6 44.35-12.417 92.68-18.662 137-31 12.75-3.549 25.24-4.839 37-8 5.2-1.4 11.05-.382 15-3zm-916 166c195.727-3.885 306.36 89.733 379 209 15.48 25.423 25.2 56.678 35 87l9 42c7.34 4.35 20.11 1.7 29 4 15.54 4.03 31.6 7.07 46 13 49.92 20.57 92.89 52.61 122 94 16.3 23.17 29.34 50.51 39 80 14.45 44.1 11.86 111.32-2 153-30.24 90.91-89.89 149.17-181 179-39.45 12.91-94.26 10-146 10h-796c-38.829.01-76.27.65-106-9-65.474-21.26-112.341-54.21-148-105-16.67-23.74-29.912-50.13-40-81-3.573-10.93-3.205-21.15-6-33-3.485-14.78-5.838-41.97-2-59 2.874-12.75.877-23.45 4-35 10.73-39.69 24.379-72.66 45-102 26.055-37.07 63.811-65 106-86l32-12c5.218-1.73 11-1.15 15-4 .877-1.29.894-2.47 1-5-4.114-6.4-2.017-22.46-2-32 .053-29.635 8.679-54.153 19-74 25.072-48.215 60.4-77.995 117-95 17.136-5.148 49.166-10.371 72-5 16.07 3.78 32.018 6.923 46 13 6.578 2.859 12.445 7.921 20 10 4.689-13.166 28.946-33.948 39-44 45.5-45.49 100.986-76.584 170-99 19.209-6.239 40.566-7.382 61-12 7.1-1.6 17.52 1.475 23-2zm15 79c-4.222 2.489-12.274-.268-18 1l-45 7c-42.061 11.767-79.363 26.834-111 49-26.538 18.594-53.123 42.753-72 69-12.219 16.989-20.918 40.971-43 48-28.916 9.2-43.793-17.605-59-27-34.659-21.413-84.45-15.185-114 6-25.187 18.057-33.321 41.126-41 77-7.743 36.17 32.994 64.58 6 94-3.043 3.32-6.131 7.61-10 10-11.131 6.87-29.237 3.29-44 7-24.691 6.21-47.022 13.06-66 25-36.687 23.08-65.335 59.02-80 104-14.33 43.95-7.369 106.71 12 140 7.114 12.23 15.894 23.12 24 34 3.839 5.15 7.939 12.16 13 16 27.766 21.05 49.843 37.2 89 48 22.815 6.29 53.879 4 82 4h835c25.24 0 51.59 1.65 72-4 46.12-12.78 84.69-37.38 109-72a221.9 221.9 0 0 0 29-59c9.67-30.01 8.28-74.37-1-103-18.99-58.59-54.08-98.76-108-122-15.96-6.88-34.1-8.87-53-13h-18c-23.32 0-38.45-1.78-48-15-9.15-12.68-5.64-30.34-10-49-6.31-27.02-10.96-52.761-21-76-48.15-111.4-150.233-197.818-309-199zm618 151c32.6-.787 46.35 17.539 66 30 31.98 20.279 63.43 41 95 61 15.72 9.96 32.19 17.98 47 29 13.76 10.23 18.85 38.58 7 55-9.25 12.82-34.62 22.08-53 11-45.71-27.56-89.93-59.48-135-88-17.57-11.116-43.43-21.056-54-39-10.01-16.991-1.26-42.837 10-51 4.88-3.535 12.08-4.29 17-8zm-1065 700c30.981-.55 57.486 24.58 43 57-4.52 10.11-15.512 17.51-23 25q-17 16.995-34 34c-7.613 7.61-14.231 16.58-25 21-10.365 4.25-27.315 1.75-35-3-14.211-8.78-26.385-34.86-14-55 7.824-12.72 21.587-22.59 32-33 12.573-12.57 24.454-28.69 39-39 4.774-3.38 12.05-3.55 17-7zm261 0c11.067-.15 20.13.77 27 5 14.41 8.87 26.837 35.4 14 56l-181 182c-16.673 16.67-42.185 47.97-74 25-10.2-7.36-20.725-28.61-13-47 5.808-13.82 20.887-24.89 31-35l122-121q28.5-28.995 57-58c4.746-3.42 12.083-3.52 17-7zm264 0c30.743-.54 56.577 24.39 43 56-4.6 10.7-15.221 18.22-23 26q-17 16.995-34 34c-7.5 7.5-14.443 16.66-25 21s-27.349 1.75-35-3c-13.174-8.18-27.117-33.48-15-54 7.981-13.52 23.062-24.06 34-35 11.291-11.29 26.118-30.6 39-39 4.652-3.03 11.241-2.86 16-6zm265 0c32.11-.44 59.93 29.24 41 60-5.27 8.56-14.02 15.02-21 22l-42 42c-23.17 23.17-46.83 45.83-70 69q-16.5 16.995-33 34c-14.248 10.25-37.383 7.44-50-2-11.646-8.72-18.357-36.13-8-52l17-18q75-74.49 150-149c4.64-3.03 11.28-2.84 16-6zm-425 180c30.026-.39 56.431 28.23 41 58-4.943 9.54-14.653 16.65-22 24-11.188 11.19-21.245 23.37-34 33q-25.5 25.995-51 52c-9.491 6.82-30.766 10.23-43 3-17.776-10.51-28.073-39.13-13-60q52.494-51.99 105-104c4.82-3.14 12.093-2.74 17-6z"
        fill-rule="evenodd" transform="translate(0 -1)" />
</svg>