<svg height="1826.591" viewBox="0 0 1709 1826.591" width="1709" xmlns="http://www.w3.org/2000/svg">
    <path
        d="m1292 1c49.67-.967 92.82-6.179 105 32 7.82 24.512-11.81 41.054-20 54-17.89 28.265-30.8 61.445-42 96-5.67 17.5-6.73 36.447-11 55q-.495 10-1 20c-4.31 20.286-2.42 56.965 2 76 4.94 21.3 4.73 39.953 11 59 14.11 42.872 32.44 81.465 56 115 50.23 71.479 124.07 121.033 219 148 35.79 10.166 76.95.773 93 32 2.8 5.441 7.41 14.981 5 25-6.44 26.77-28.57 41.917-43 61-35.33 46.717-96.91 85.579-152 113-25.82 12.854-78.85 36.739-101 6-13.79-19.133-6.94-48.5 9-60 12.82-9.245 32.99-11.483 48-18 33.04-14.343 61.01-33.99 88-54 9.7-7.191 22.37-14.92 29-25h-1v-1c-16.27-.806-33.75-9.491-47-15-11.27-4.689-21.16-7.214-32-12-25.89-11.424-50.02-27.506-72-43-69.97-49.309-124.79-114.109-161-197-12.64-28.937-18.02-58.335-27-92-12.02-45.067-13.58-133.588-1-180 10.83-39.951 20.88-76.461 37-110h-2c-7.14 4.192-19.41 1.773-28 4-15.91 4.124-32.75 6.432-48 12-35.44 12.939-69.36 27.92-98 48-9.37 6.568-17.97 15.228-27 22-12.58 9.436-27.57 20.536-37 33-9.84 13.008-21.64 24.7-31 38-22.375 31.788-40.609 68.553-54 109-6.191 18.7-8.319 38.974-13 59-4.261 18.231-1.075 34.654-10 47-14.449 19.989-51.829 21.546-67 1-9.7-13.138-11.085-37.957-6-59 3.044-12.6 3.342-26.125 7-39 7.647-26.917 15.714-53.448 26-77 51.7-118.375 136.85-202.276 257-252 27.95-11.565 58.38-17.129 90-25l37-5c4.39-.981 9.96.919 13-1zm-508 507c125.951-2.49 204.55 34.2 275 86 79.85 58.719 131.34 142.667 155 258h2c5.84 3.437 15.85 1.146 23 3 13.21 3.425 27.34 5.294 40 10 51.03 18.972 97.17 48.744 127 89 23.37 31.539 39.03 65.14 52 108l6 36v16c3.19 14.91.31 37.72-3 51-3.53 14.17-3.7 26.06-8 39-9.56 28.76-23.28 53.68-39 76-35.58 50.53-82.88 84.85-148 106-31.71 10.3-71.38 10-113 10h-806c-81.774.01-150.245-.19-201-31-67.425-40.93-108.321-85.84-135-168-8.275-25.49-16.925-75.25-9-109 3.643-15.51 5.143-31.39 10-46 12.336-37.12 30.86-66.937 52-95 18.185-24.14 59.74-56.11 89-69 12.651-5.573 25.889-10.217 39-15 5.523-2.015 13.367-1.134 16-6-3.656-5.665-.352-15.087-2-23-4.158-19.964 3.448-46.948 9-62 23.128-62.7 62.293-102.165 127-123l34-6c22.814-4.948 66.682 5.143 81 11 5.489 2.246 24.493 13.294 28 12 16.257-15.035 27.222-36.536 45-50 13.374-10.129 25.3-22.359 39-32a465.456 465.456 0 0 1 83-46c25.232-10.885 53.363-16.767 82-24l37-5c4.392-.964 9.967.927 13-1zm0 84c-4.768 2.819-12.894.58-19 2-16.05 3.732-32.829 5.047-48 10-39.1 12.766-72.673 29.625-103 51-22.125 15.594-51.412 44.872-67 67-12.194 17.31-19.579 38.863-42 46-29.529 9.4-44.676-17.365-60-27-33.036-20.77-83.546-16.689-113 4-24.908 17.5-35.332 41.51-43 77-8.812 40.785 32.158 59.48 7 96-2.941 4.269-5.743 8.175-10 11-13.343 8.855-36.154 5.068-54 10-23.4 6.466-44.662 14.387-63 26-36.166 22.9-63.618 60.37-78 105q-3 14.505-6 29c-2.361 10.63-2.19 27.93 0 38v11q3.5 16.005 7 32c7.165 21.81 18.556 42.02 31 59 2.942 4.01 8.04 7.08 11 11 3.108 4.12 5.952 8.94 10 12 26.149 19.74 51.278 35.9 88 46 23.035 6.34 53.839 4 82 4h847c20.78 0 43.87 2.36 62-2 53.41-12.85 94.81-36.27 122-75a222.35 222.35 0 0 0 29-59c9.33-28.96 8.64-72.56 0-101-18.08-59.51-53.18-101.718-107-125-16.02-6.931-34.05-9.8-53-14h-13c-9.28-1.979-19.79 2.363-30 0-11.73-2.715-22.93-8.588-29-17-9.23-12.792-5.6-32.5-10-51-6.87-28.886-12.32-55.471-23-80-34.66-79.609-97-138.61-177-173-20.251-8.706-43.088-13.248-66-19-23.92-6-53.387-3.816-82-4zm-416 872c31.409-.53 58.642 25.8 45 58-4.151 9.8-12.977 15.98-20 23q-19 19.005-38 38c-7.189 7.19-14.125 17.81-24 22-12.385 5.25-31.547 3.19-41-3-13.989-9.16-25.918-35.92-14-56 8.678-14.62 25.137-26.14 37-38 11.487-11.49 24.611-29.29 38-38 4.827-3.14 12.076-2.76 17-6zm265 0c11.871-.15 21.773 1.28 29 6 15.132 9.89 26.491 38.35 13 59q-92.49 92.985-185 186c-17.907 17.91-43.859 47.6-77 23-11.415-8.47-19.9-31.52-12-50 5.748-13.45 21.051-25.05 31-35l183-182c5.172-3.49 12.633-3.4 18-7zm268 0c29.917-.56 58.2 23.8 46 56-7.8 20.59-42.257 46.26-58 62-7.473 7.47-14.756 18.65-25 23-12.375 5.26-31.557 3.19-41-3-16.273-10.67-24.613-38.83-12-59q34.5-34.995 69-70c6.036-4.38 14.393-4.64 21-9zm269 0c11.87-.16 21.78 1.28 29 6 14.11 9.23 26.58 36.45 14 57-5.28 8.63-13.99 14.99-21 22l-43 43q-50.49 51-101 102c-17.17 12.84-39 14.48-57 1-5.385-4.03-8.381-11.04-11-18-9.564-25.42 7.453-42.45 20-55q75.99-75.495 152-151c5.05-3.57 12.65-3.42 18-7zm-432 183c32.782-.44 58.109 28.11 43 61-6.491 14.13-23.351 25.35-34 36q-26 25.995-52 52c-8.479 8.48-16.507 19.77-27 26-10.645 6.32-31.4 6.52-42 0-16.8-10.33-29.058-39.4-14-61 4.761-6.83 12.152-12.15 18-18q20-19.995 40-40 17-16.995 34-34c4.8-4.8 9.354-11.19 15-15 5.349-3.61 13.372-3.28 19-7z"
        fill-rule="evenodd" transform="translate(0 -.219)" />
</svg>