<svg height="1401.691" viewBox="0 0 1580 1401.691" width="1580" xmlns="http://www.w3.org/2000/svg">
    <path
        d="m1308 375c39.53-.44 73.14 13.8 101 26 78.25 34.254 126.95 94.1 157 177 15.26 42.1 20.16 114.738 5 162-25.38 79.1-66.71 134.08-131 174-30.03 18.649-62.97 29.993-103 40-12.76 3.19-26.19.045-40 3-16.7 3.571-56.66 2.482-69-3-29.66-13.173-29.75-58.527-3-75 18.53-11.415 80.48-2.27 106-9 75.6-19.938 122.74-62.669 151-130 8.7-20.721 14-44.23 14-74v-18c-4.46-20.378-5.9-39.649-13-57-23.49-57.428-65.46-97.544-123-121-16.66-6.79-35.51-7.782-55-12-9.05-1.959-24.48-.4-32 1-13.24 2.469-29.91-8.165-35-15-11.54-15.491-6.14-26.64-11-48-5.93-26.09-8.69-52.147-18-75-38.47-94.391-101.67-166.828-194-207-24.072-10.473-50.244-17.056-78-24-15.693-3.926-51.7-8.268-68-5h-25c-18.059 3.951-36.772 3.2-54 8-40.469 11.27-77.217 24.992-109 45-16.957 10.675-32.186 24.055-48 36l-13 14c-14.04 14.043-28.449 28.551-40 45-9.77 13.912-16.751 33.817-33 41-33.27 14.707-56.171-18.611-75-30-46.111-27.89-116.568-6.458-141 26-14.438 19.182-21.767 37.387-28 66-10 45.883 34.884 70.535 7 108-4.908 6.594-15.953 11.751-25 14l-23 1c-18.979 4.256-37.674 6.945-54 14-67.7 29.257-107.27 81.13-126 160-7.7 32.431.252 74.19 9 98 26.464 72.031 73.935 116.654 151 138 27.173 7.527 90.21-2.828 110 10 28.985 18.789 24.274 63.287-7 76-13.716 5.576-39.674 2-57 2-57.73 0-103.816-13.915-140-36-72.235-44.09-118.671-95.1-144-186-5.454-19.574-4-46.147-4-71v-48c20.558-90.394 62.334-152.152 130-195 22.181-14.046 60.021-36.392 92-39-.759-20.771-6.065-44.457-1-66 20.051-85.284 60.806-130.857 138-159 44.063-16.064 98.958-9.518 137 7 7.815 3.393 16.5 5.353 22 11 1.754-.631.971-.193 2-1 5.21-4.883 8.654-11.207 13-17l7-6c9.035-11.968 19.034-22.957 31-32l9-10c19.02-14.39 37.58-30.1 58-43 34-21.481 73.156-36.424 115-50 68.683-22.285 176.714-18.527 242 3 16.28 5.369 30.99 8.494 46 15 77.75 33.694 143.89 85.535 190 151 10.18 14.457 17.56 29.517 27 45 17.53 28.754 27.43 60.232 39 96 4.67 14.438 9.65 31.8 11 49zm-190 244c40.84-.594 64.45 36.019 40 69-3.32 4.472-8.83 7.293-13 11-14.43 12.818-26.44 28.245-42 40q-9.495 10-19 20c-15.81 14.058-30.11 30.24-47 43q-10.005 10.5-20 21c-8.25 6.238-14.01 14.957-22 21-7.279 5.5-22.111 17.831-27 25h108q7.995 2.5 16 5c12.8 7.594 28.32 29.515 19 52-4.81 11.6-14.76 18.764-23 27q-19.995 20-40 40-73 72.99-146 146-20.5 20.505-41 41c-6.9 6.91-13.417 15.95-23 20-9.194 3.89-23.907 3.84-33 0-20.985-8.85-34.673-40.89-18-64l183-182v-1h-114c-6.116-4.223-14.25-4.811-20-9-11.97-8.719-20.263-34.061-11-52 5.457-10.568 22.436-24.776 32-32l17-18c15.529-15.2 31.639-31.884 49-45 14.555-11 27.446-31 42-42 40.08-30.29 70.93-73.72 111-104 9.21-6.958 15.47-18.231 25-25 4.76-3.38 12.1-3.521 17-7zm-425 147c9.871-.143 18.1.039 25 3 20.736 8.895 33.345 41.36 17 64-4.857 6.727-13.313 12.949-20 18l-10 11c-9.357 9.351-19.4 18.991-30 27l-17 18c-7.511 5.673-12.749 13.522-20 19-20.752 15.679-38.514 35.9-57 54-11.631 11.387-27.943 21.35-37 35h108c4.935 3.22 12.119 2.96 17 6 13.352 8.32 25.757 30.94 17 52-4.24 10.19-13.712 16.71-21 24l-42 42c-48.835 48.83-97.168 98.17-146 147q-20 19.995-40 40c-6.85 6.85-13.529 15.98-23 20-9.439 4-25.563 4.03-35 0-24.312-10.39-31.211-43.85-14-67l180-179v-1h-112c-6.128-4-14.354-3.92-20-8-14-10.11-22.76-37.12-11-56 6.106-9.8 17.449-17.4 26-25 20.167-17.926 37.312-39.615 59-56l12-13a277.606 277.606 0 0 1 28-25l18-19c36.677-27.721 64.324-66.286 101-94 10.616-8.022 18.155-21.173 29-29 5.19-3.745 12.645-4.186 18-8zm497 257c31.86.93 57.29 34.06 38 65q-98.985 99.495-198 199c-18.55 18.56-45.855 53.56-81 28-11.6-8.43-20.236-32.2-12-51 4.837-11.04 26.879-29.88 36-39q66-65.49 132-131 30.99-31.5 62-63c6.57-4.74 17.07-4.24 23-8zm-902 93c9.855-.17 18.119.04 25 3 14.768 6.35 31.9 30.23 22 54-4.616 11.08-14.112 18.11-22 26l-39 39c-8.764 8.76-16.687 19.94-29 25-10.737 4.41-29.1 1.88-37-3-14.693-9.08-28.157-36.61-15-58 8.28-13.46 22.97-23.97 34-35 13.759-13.76 28.291-32.86 44-44 4.773-3.38 12.054-3.55 17-7zm418 99c32.8-.52 60.618 24.88 46 59-6.783 15.83-24.432 26.44-36 38q-41 41.49-82 83c-10.856 7.8-32.6 10.99-46 3-16.1-9.61-29.252-38.18-15-60 3.246-4.97 8.835-8.84 13-13q14.5-14.505 29-29 35.5-36 71-72c5.8-4.29 13.637-4.77 20-9z"
        fill-rule="evenodd" transform="translate(0 -.969)" />
</svg>