<svg height="1311" viewBox="0 0 1585 1311" width="1585" xmlns="http://www.w3.org/2000/svg"><path d="m1312 374c40.14-.019 77.19 14.087 105 28 78.92 39.484 129.32 96.982 157 188 6.44 21.177 15.62 68.969 9 98v10c-4.2 18.15-5.41 36.19-11 53-29.8 89.63-90.47 152.017-175 187-46.98 19.441-109.25 19-177 19h-883c-40.8.007-81.608 1.271-114-8-71.612-20.5-125.592-56.436-164-110-21.448-29.912-37.81-61.867-50-102-3.217-10.59-2.4-19.674-5-31-2.637-11.491-6.383-49.114-3-64 4.692-20.646 4.812-41.39 11-60q33.733-101.45 113-157c21.566-15.146 47.552-27.2 74-37 6.455-2.391 25.174-4.252 28-9-4.671-7.036-3-23.16-3-34 0-32.068 6.511-55.157 16-77 25.247-58.113 66.754-94.711 131-114 27.265-8.186 70.757-9.558 99-1 18.174 5.507 39.914 9.209 52 21 1.754-.631.971-.193 2-1 7.294-4.924 12.7-14.966 18-22 9.992-13.254 24.7-26.956 38-37l7-8c29.618-22.371 60.216-47.227 96-63 26.3-11.591 54.049-20.654 83-30 52.788-17.04 150.757-17.391 205-2 27.456 7.79 51.85 12.469 76 23 80.42 35.069 145.3 89.114 193 157 8.09 11.508 13.52 23.732 21 36 17.79 29.16 28.16 60.749 40 97 4.77 14.6 10.43 32.122 11 50zm-459-290c-5.44 3.2-15.146.421-22 2l-43 8c-42.244 12.765-80.561 27.411-113 50-30.613 21.317-61.029 48.049-83 78-12.894 17.578-22.831 45.012-45 53-31.573 11.377-48.636-18.406-66-29-39.588-24.154-94.659-16.446-128 7-20.25 14.24-35.176 38.409-43 65-2.025 6.881-1.563 15.27-3 22-.777 3.64.548 8.915 1 11 2.446 11.288.841 19.449 4 29 6.78 20.5 19.306 34.278 5 58-2.532 4.2-6.156 9.224-10 12-13.807 9.971-37.662 5.892-57 11-27.628 7.3-51.7 16.491-73 30-41.938 26.6-71.305 70.075-87 123l-5 29v16c-2.558 12.067.318 31.073 3 42 2.042 8.318 1.5 14.285 4 22 9.062 27.966 22.465 50.072 38 71 7.4 9.969 16.171 21.594 26 29 28.338 21.35 57.372 37.088 98 47 23.351 5.7 53.68 3 81 3h924c29.13 0 58.82 1.442 82-5 50.92-14.148 93.14-41.747 120-80a244.305 244.305 0 0 0 32-65c10.41-32.31 9.66-80.205 0-112-19.62-64.551-58.59-111.726-117-137-14.27-6.176-30.02-10.006-46-14-8.38-2.094-17.99-1.274-26-3-6.14-1.323-16.42.016-21 1-17.35 3.729-34.86-6.594-41-15-10.6-14.514-6.92-35.661-12-57-7.18-30.14-12.84-58.235-24-84-39.47-91.151-109.34-156.932-202-195-21.559-8.857-45.7-13.078-70-19-24.013-5.85-52.642-3.8-81-4zm-558 968h266c39.14 0 62.089-3.47 76 23 2.939 5.59 7.533 15.32 5 26-10.008 42.2-49.552 35-100 35h-173c-21.837 0-62.952 3.64-80-2-22.2-7.34-38.591-39.17-22-64 3.635-5.44 11.749-12.34 18-15 3.517-1.49 7.188-1.05 10-3zm455 0h524c10.54 0 24.11-1.71 33 1a41.152 41.152 0 0 1 22 16c4.68 6.49 12.53 18.05 9 32-3.43 13.53-11.75 25.33-23 31-10.33 5.21-26.81 4-42 4h-485c-14.6 0-33.45 2.22-45-2-20.526-7.5-38.6-37-23-62 3.429-5.5 11.171-12.99 17-16 4.066-2.1 9.287-1.59 13-4zm-369 175h358c45.551 0 81.017-8.11 99 22 3.1 5.18 8.32 15.09 6 25-10.589 45.25-51.347 37-105 37h-332c-14.073 0-28.452.83-38-4-20.292-10.26-31.827-40.85-15-64 3.932-5.41 12.516-11.33 19-14 2.708-1.11 5.875-.61 8-2zm577 0h178c22.8 0 63.13-4.15 80 3 11.75 4.98 30.36 24.67 25 46-3.28 13.05-10.75 23.92-21 30-13.15 7.81-39.73 5-60 5h-136c-24.772 0-63.339 4.89-80-5-17.979-10.68-29.554-40.46-14-62 3.447-4.77 11.44-11.55 17-14 3.594-1.58 7.958-1.02 11-3z" fill-rule="evenodd"/></svg>