<svg height="957.031" viewBox="0 0 1579.69 957.031" width="1579.69" xmlns="http://www.w3.org/2000/svg"><path d="m1308 375c35.65-.59 68.56 11.845 94 23 79.58 34.888 136.49 94.353 165 180 17.44 52.377 17.29 135.542-3 185-35.86 87.385-91.61 143.148-179 179-23.85 9.785-50.78 9.624-79 16h-980c-35 .006-70.821 1.96-99-6-56.45-15.947-89.356-34.35-130-65-7.234-5.455-14.476-13.687-20-21-8.325-11.02-19.875-20.455-28-32-23.654-33.61-38-72.258-49-119v-39c-.005-24.809-2.741-54.726 3-75 26.033-91.927 68.834-144.4 142-189 18.878-11.507 50.455-27.862 77-30-.76-20.771-6.065-44.457-1-66 20.05-85.276 60.809-130.858 138-159 39.983-14.577 96.275-10 132 5 9.493 3.985 20.373 6.2 27 13 1.754-.631.971-.193 2-1 5.5-5.152 9.421-11.908 14-18a199.067 199.067 0 0 1 37-37l9-10c19.02-14.39 37.58-30.1 58-43 34.006-21.486 73.157-36.424 115-50 68.7-22.29 176.686-18.517 242 3 16.28 5.365 30.99 8.494 46 15 77.73 33.683 143.91 85.558 190 151 10.61 15.063 18.17 30.825 28 47 17.11 28.154 26.59 59.052 38 94 4.72 14.439 9.65 31.848 11 49zm-464-290c-5.067 2.986-13.474.5-20 2l-46 9c-43.355 14.012-81.461 30.445-115 54-27.239 19.131-57.615 48.052-77 75-12.767 17.749-22 43.673-45 51-31.226 9.949-45.947-18.026-62-28-38.222-23.749-93.327-20.35-128 4-27.128 19.052-39.617 45.517-48 84-1.277 5.864.052 15.7 1 20 1.895 8.606.592 14.574 3 22 7.877 24.29 21.141 38.928 3 64-2.562 3.54-4.414 6.61-8 9-14.3 9.53-38.841 5.7-58 11-28.792 7.959-54.408 17.875-76 33-35.511 24.875-64.178 62.7-79 108-28.584 87.369 13.2 183.478 63 221 28.149 21.208 56.883 36.927 97 47 22.9 5.75 53.86 3 81 3h925c27.01 0 56.05 2.076 78-4 52.7-14.589 94.98-40.869 123-80 13.74-19.183 25.09-42.458 33-67 9.86-30.587 9.13-79.84 0-110-20.02-66.125-59.22-113.135-119-139-19.97-8.641-41.72-10.746-66-16-8.45-1.828-23.1-.408-30 1-13.95 2.849-30.77-7.979-36-15-11.58-15.548-6.75-32.93-12-55-7.56-31.744-13.26-61.044-25-88-41.93-96.278-115.37-157.961-214-198-20.989-8.52-45.344-10.652-69-16-21.76-4.919-49.4-1.832-74-2z" fill-rule="evenodd" transform="translate(0 -.969)"/></svg>