<svg height="1284" viewBox="0 0 2022 1284" width="2022" xmlns="http://www.w3.org/2000/svg"><path d="m1693 332c52.74-.594 114.64 23.575 148 44 11.66 7.141 23.06 12.308 34 20 50.52 35.51 92.95 87.254 119 147 11.76 26.97 17.42 56.357 25 88 10.08 42.042.62 112.687-10 145-6.33 19.256-10.41 35.709-18 53-31.83 72.533-96.35 138.093-169 170-17.14 7.53-35.79 15.72-55 22-15.74 5.15-30.62 5-48 9-11.64 2.68-33.6 6.48-46 3-32.77-9.21-45.08-54.345-15-76 14.6-10.51 41.75-5.809 62-11 31.34-8.036 60.58-16.04 85-31 66.43-40.688 104.52-90.924 127-176 4.95-18.73 10.54-64.888 5-89-3.42-14.859-4.38-29.943-9-44-11.29-34.35-27.68-63.684-47-90-33.85-46.1-88.34-77.376-151-95-24.42-6.868-78.8-.733-96-13-17.22-12.287-13.62-27.282-20-50-5.05-17.976-9.97-36.484-18-52-34.09-65.865-84.12-107.618-160-132-41.38-13.3-110.18-7.283-145 7-16.05 6.581-48.21 29.637-70 23-16.01-4.875-23.06-17.083-32-29-7.93-10.566-26.32-28.077-37-36a321.308 321.308 0 0 0 -93-48c-15.74-5.153-31.06-4.112-49-8-17.186-3.724-49.814-3.194-67 1-16.075 3.923-33.316 5.982-48 12-63.629 26.075-109.045 64.456-143 120-10.044 16.43-17.6 36.677-24 56-5.391 16.28-6.569 28.312-19 37-11.4 7.968-28.441 6.617-44 11-20.021 5.64-39.914 11.074-58 19-98.995 43.387-185.845 144.061-190 282 22.45-.627 47.361-4.357 69 1 15.87 3.929 31.588 10.716 47 13 8.475-12.489 24.341-21.569 37-30 21-13.982 44.271-25.235 71-34 10.983-3.6 20.931-3.147 33-6 12.9-3.049 35.311-5.34 50-2 11.49 2.613 21.319.121 32 3 52.327 14.1 80.8 29.9 118 58 19.268 14.553 40 44.654 53 66 4.2 6.894 11.266 32.008 17 35 6.538 4.445 16.254 3.886 24 7 14.087 5.662 30.186 11.22 43 19 64.38 39.089 131.5 108.309 143 199h119c18.42 0 42.45-2.5 55 4 10.52 5.448 18.85 17.129 22 30 4.69 19.14-7.02 33.47-16 40-16.16 11.76-35.05 10-63 10h-114v2c-4.4 7.21-2.59 19.38-5 28-4.66 16.67-9.33 33.65-16 49-25.65 59.05-69.17 102.93-122 135-21.607 13.12-48.367 21.63-75 29l-38 6q-25.5.495-51 1h-574c-25.224 0-50.82 1.36-72-4-43.881-11.09-77.854-25.96-109-49-45.55-33.7-75.079-85.5-91-149-7.186-28.66-5.423-77.25 2-104 9.1-32.787 21.655-62.292 39-87 28.693-40.873 69.52-70.85 119-91 18.28-7.444 40.485-7.056 60-14 1.435-11.039 7.237-20.374 11-29 12.021-27.551 27.369-48.369 47-68l11-12c9.286-6.987 18.354-14.634 28-21 5.17-3.412 11.839-3.4 13-11-3.4-5.2-.739-35.973 0-44 3.757-40.8 11.916-78.448 25-110 34.56-83.338 77.993-142.5 147-191 12.727-8.944 26.373-14.716 40-23 23.612-14.355 49.766-22.437 79-32 8.041-2.63 17.285-6.224 27-7 1.093-9.584 6.652-18.388 10-26 9.2-20.926 18.283-38.441 30-56 51.024-76.462 118.389-122.751 218-151 19.556-5.546 42.268-4.994 67-5h54c18.98 4.443 38.24 6.072 56 12 41.8 13.95 76.04 32.948 108 56 15.61 11.255 37.58 27.121 48 43 20.17-9.394 43.5-15.838 67-22 38.98-10.22 97.48-7.723 134 2 16.21 4.315 30.45 6.045 45 12 72.5 29.665 125.86 74 165 137 15.69 25.245 34.38 57.129 39 92zm-1000 314-28 5c-15.473 4.676-31.248 10.977-44 19-11.075 6.968-26.19 17.642-34 28-11.189 14.838-19.09 26.445-41 31-14.472 3.009-42.391-15.891-55-20-37.513-12.223-89.153-4.337-116 12-29.152 17.74-52.964 42.233-67 75-9.809 22.9-7.416 53.93-27 67-15.261 10.184-30.611 2.509-51 7-24.2 5.329-45.757 9.888-64 21-49.1 29.906-103.821 105.075-76 191 8.368 25.85 22.368 45.62 37 65 5.765 7.64 15.131 13.36 23 19 20.634 14.8 41.617 24.88 71 32 15.805 3.83 35.654 2 54 2h577c18.386 0 38.009 1.8 54-2 28.106-6.68 52.663-13.75 74-27 8.605-5.34 16.117-13.07 24-19 7.79-5.86 17.19-13.28 23-21 16.81-22.34 31.41-46.23 41-76 28.8-89.444-23.62-180.211-73-215a238.342 238.342 0 0 0 -64-32c-15.133-4.884-34.445-3.677-46-12-18.029-12.987-21.864-50.158-34-70-30.518-49.9-77.034-79.8-158-80zm791 304c25.43-.559 39.95 9.593 47 27 11.25 27.78-11.1 50.66-30 56-31.24 8.84-60.17-24.67-50-55 3.74-11.15 14.19-21.944 25-26 3.21-1.206 5.67-.432 8-2z" fill-rule="evenodd"/></svg>