<svg height="1597.94" viewBox="0 0 1585 1597.94" width="1585" xmlns="http://www.w3.org/2000/svg"><path d="m1312 374c41.07-.02 75.96 15.162 105 28 67.21 29.708 116.73 84.376 146 152 5.63 13 7.67 25.558 12 40 6.06 20.192 14.24 66.645 8 94v10c-4.2 18.15-5.41 36.19-11 53-29.8 89.63-90.47 152.017-175 187-46.98 19.441-109.25 19-177 19h-883c-40.8.007-81.608 1.271-114-8-71.612-20.5-125.592-56.436-164-110-22.025-30.716-37.518-60.907-50-102-3.217-10.59-2.4-19.674-5-31-2.637-11.491-6.383-49.114-3-64 4.692-20.646 4.812-41.39 11-60q33.733-101.45 113-157c20.948-14.712 45.8-25.824 71-36 6.727-2.716 28.068-5.073 31-10-4.671-7.036-3-23.16-3-34 0-32.068 6.511-55.157 16-77 25.247-58.113 66.754-94.711 131-114 27.265-8.186 70.757-9.558 99-1 18.174 5.507 39.914 9.209 52 21 1.754-.631.971-.193 2-1 7.294-4.924 12.7-14.966 18-22 9.992-13.254 24.7-26.956 38-37l7-8c29.618-22.371 60.216-47.227 96-63 26.3-11.591 54.049-20.654 83-30 52.788-17.04 150.757-17.391 205-2 27.456 7.79 51.85 12.469 76 23 80.42 35.069 145.3 89.114 193 157 8.09 11.508 13.52 23.732 21 36 17.79 29.16 28.16 60.749 40 97 4.77 14.6 10.43 32.122 11 50zm-459-290c-5.44 3.2-15.146.421-22 2l-43 8c-42.244 12.765-80.561 27.411-113 50-30.613 21.317-61.029 48.049-83 78-12.894 17.578-22.831 45.012-45 53-31.573 11.377-48.636-18.406-66-29-39.588-24.154-94.659-16.446-128 7-20.25 14.24-35.176 38.409-43 65-2.025 6.881-1.563 15.27-3 22-.777 3.64.548 8.915 1 11 2.446 11.288.841 19.449 4 29 6.78 20.5 19.306 34.278 5 58-2.532 4.2-6.156 9.224-10 12-13.807 9.971-37.662 5.892-57 11-27.628 7.3-51.7 16.491-73 30-41.938 26.6-71.305 70.075-87 123l-5 29v16c-2.558 12.067.318 31.073 3 42 2.042 8.318 1.5 14.285 4 22 9.062 27.966 22.465 50.072 38 71 7.4 9.969 16.171 21.594 26 29 28.338 21.35 57.372 37.088 98 47 23.351 5.7 53.68 3 81 3h924c29.13 0 58.82 1.442 82-5 50.92-14.148 93.14-41.747 120-80a244.305 244.305 0 0 0 32-65c10.41-32.31 9.66-80.205 0-112-19.62-64.551-58.59-111.726-117-137-14.31-6.194-29.93-9.983-46-14-8.38-2.094-17.99-1.274-26-3-6.14-1.323-16.42.016-21 1-17.35 3.729-34.86-6.594-41-15-10.6-14.514-6.92-35.661-12-57-7.17-30.132-12.86-58.263-24-84-39.47-91.151-109.34-156.932-202-195-21.559-8.857-45.7-13.078-70-19-24.013-5.85-52.642-3.8-81-4zm202 1209c-6.78 1.2-11.07 5.97-16 9-9.96 6.12-20.03 9.9-30 16-19.262 11.79-40.408 25.89-65 8-13.517-9.84-21.009-37.31-10-55 7.558-12.14 20.685-16.47 33-24 14.183-8.67 28.555-18.71 44-26-1.02-.8-.27-.35-2-1-5.29-4.77-12.669-6.15-19-10-18.011-10.95-44.232-19.63-56-37-6.347-9.37-10.8-25.32-5-39 6.764-15.94 28.92-33.54 54-24l72 39v-80c6.06-8.81 6.49-18.83 15-25a55.143 55.143 0 0 1 17-8c8.07-2.21 16.95-.28 23 2 37.32 14.06 28.67 58.53 28 108h2c6.21-5.95 15.44-8.38 23-13 15.02-9.18 31.16-22.68 49-28 26.98-8.05 47.1 13.68 52 32 9.95 37.21-40.9 57.36-60 69-6.37 3.88-17.66 6.3-21 13h1c5.67 5.08 14.07 7.24 21 11 19.9 10.82 67.54 29.36 61 61-1.76 8.52-1.24 13.98-5 20-8.45 13.53-31.4 26.16-53 17-10.49-4.45-21.39-12.15-31-18-7.55-4.6-15.46-6.42-23-11-4.9-2.98-9.9-7.19-16-9v82c-1.94 2.82-1.45 6.52-3 10-2.47 5.56-9.21 13.56-14 17-4.15 2.98-10.73 5.62-16 7-12.35 3.23-23.79-2.1-31-7-15.37-10.44-25.08-32.94-19-61zm-541-195c25.059-.24 39.936 8.84 47 26 4.006 9.73 2 27.12 2 40v83h1c3.346-5.15 8.73-8.73 13-13l30-30c7.7-7.7 15.4-18.51 26-23 22.353-9.47 45.454 3.08 54 17 6.838 11.14 6.091 31.96 0 43-3.531 6.4-9.984 10.98-15 16q-24 24.495-48 49h89c6.137 3.66 18.19-1.13 26 1 9.319 2.54 19.96 8.99 25 16a56.257 56.257 0 0 1 7 15c4.517 15.87-3.72 28.73-10 37a38.556 38.556 0 0 1 -17 13c-10.592 3.83-27.457 2-41 2h-80v1c7.425 4.82 13.674 12.95 19 20 6.948 9.2 17.777 17.78 26 26 6.907 6.91 16.973 13.5 21 23 9.52 22.47-3.071 45.37-17 54-11.692 7.24-34.163 6.09-45-1q-32-31.5-64-63v114c-1.939 2.82-1.492 6.49-3 10-2.426 5.65-9.193 13.55-14 17-15.445 11.09-36.583 7.72-50-2a41.79 41.79 0 0 1 -16-23q-.5-18.495-1-37c0-26.77.7-53.52 1-79h-1c-3.341 5.15-8.731 8.73-13 13l-30 30c-7.752 7.75-15.3 18.47-26 23-16.5 6.99-39.471 1.11-48-9-7.529-8.92-15.976-28.19-9-45 5.276-12.71 16.921-20.92 26-30 11.892-11.89 27.443-32.13 41-41v-1h-113c-3.039-1.98-7.388-1.45-11-3-6.242-2.67-14.378-9.55-18-15-9.292-13.99-7.588-34.32 1-47 4.928-7.28 11.187-13.8 20-17 10.264-3.73 26.76-2 40-2h80v-1c-5.153-3.35-8.73-8.73-13-13l-30-30c-7.454-7.45-17.639-14.71-22-25-9.493-22.41 3.058-45.44 17-54 11.772-7.23 34.213-6.06 45 1q32 31.5 64 63v-115c1.96-2.8 1.5-6.49 3-10 2.369-5.54 9.22-13.72 14-17 4.877-3.35 12.033-3.52 17-7z" fill-rule="evenodd"/></svg>