<svg height="722.188" viewBox="0 0 1155.466 722.188" width="1155.466"
    xmlns="http://www.w3.org/2000/svg">
    <path
        d="m353 0h356v6c16.645 7.954 14.859 24.532 10 42-5.661 3.739-11.534 8.951-19 11h-263c-25.355 0-75.339 4.727-90-6-9.643-7.056-11.351-29.233-4-40 3.859-5.652 9.391-3.151 10-13zm-255 138h637c16.1 0 35.458-1.817 45 5 5.682 4.059 13.481 18.572 10 31-6.414 22.9-29.555 22-59 22h-593c-15.449 0-34.416 1.9-46-3-6.735-2.85-10.976-10.246-16-15a161.845 161.845 0 0 1 0-23l13-14zm239 136h772c18.44 0 45-2.176 50 11 12.99 13.725.59 37.5-10 44-8.98 5.508-33.13 2-46 2h-736c-12.927 0-32.825 2.467-41-3-13.054-8.731-19.869-27.224-8-43 4.7-6.24 12.5-6.439 19-11zm-305 132h764c15.733 0 41.214-3.4 52 3 7.49 4.443 16.373 17.455 12 33-6.2 22.026-29.472 20-58 20h-738c-8.955 0-33.018 2.277-39-1l-6-7c-13.866-10.506-10.47-22.058-6-39 2.456-1.545 4.558-4.739 7-6 3.577-1.847 8.8-.862 12-3zm179 129h742c16.775 0 38.078-2.306 53 1 6.36 1.409 10.93-.148 16 2 6.88 2.916 18.23 15.742 16 27-1.95 9.844-7.22 21.007-15 25-12.25 6.287-37.874 3-55 3h-730c-13.827 0-32.4 1.863-41-4-8.44-5.755-17.5-25.852-9-39 3.5-5.423 9.415-8.617 14-13 3.252-.1 7-.545 9-2zm127 131h467c11.154 0 31.49-2.853 39 2 15.125 4.635 17.673 20.508 15 40-5.821 4.517-8.774 11.717-17 14h-481c-13.585 0-29.8 1.543-38-4-8.324-5.624-16.557-25.211-8-38l13-12c2.831-1.411 7.53-.475 10-2z"
        fill-rule="evenodd" transform="translate(-9.094)" />
</svg>